# Blender v2.79 (sub 0) OBJ File: ''
# www.blender.org
v 1.001875 -0.000000 0.588995
v 0.001875 0.000000 -0.011005
v 1.001875 0.002537 -0.000795
v 0.001875 2.500000 -0.011005
v 1.001875 2.500000 0.588995
v 1.001875 2.500000 -0.011005
v 0.001875 -0.000000 0.588995
v 0.001875 2.500000 0.588995
vt 1.000000 0.000000
vt 0.000000 1.000000
vt 0.000000 0.000000
vt 0.000000 0.000000
vt 1.000000 1.000000
vt 0.000000 1.000000
vt 1.000000 0.000000
vt 0.000000 1.000000
vt 1.000000 0.000000
vt 0.000000 1.000000
vt 0.000000 0.000000
vt 1.000000 0.000000
vt 0.000000 0.000000
vt 1.000000 0.000000
vt 0.000000 1.000000
vt 0.000000 0.000000
vt 1.000000 1.000000
vt 1.000000 1.000000
vt 1.000000 1.000000
vt 1.000000 1.000000
vn 0.0000 -1.0000 -0.0000
vn 0.0000 1.0000 0.0000
vn 1.0000 0.0000 0.0000
vn 0.0000 -0.0000 1.0000
vn -1.0000 -0.0000 0.0000
vn -0.0000 0.0000 -1.0000
s 1
f 1/1/1 2/2/1 3/3/1
f 4/4/2 5/5/2 6/6/2
f 6/7/3 1/8/3 3/3/3
f 5/9/4 7/10/4 1/11/4
f 8/12/5 2/2/5 7/13/5
f 3/14/6 4/15/6 6/16/6
f 1/1/1 7/17/1 2/2/1
f 4/4/2 8/12/2 5/5/2
f 6/7/3 5/5/3 1/8/3
f 5/9/4 8/18/4 7/10/4
f 8/12/5 4/19/5 2/2/5
f 3/14/6 2/20/6 4/15/6
